# xmcd
#
# Track frame offsets: 
#        150
#        21420
#        41426
#        59457
#        75829
#        99009
#        120851
#        142780
#        160104
#        186170
#        205423
#        225045
#
# Disc length: 3250 seconds
#
# Revision: 0
# Processed by: cddbd v1.5.2PL0 Copyright (c) Steve Scherf et al.
# Submitted via: ExactAudioCopy v1.0b3
#
DISCID=7f0cb00c
DTITLE=Cam Ly - Doi Cho Nhung Mua Dong
DYEAR=2008
DGENRE=
TTITLE0=Doi cho nhung mua dong
TTITLE1=Con mai goi ten
TTITLE2=Co mot nguoi yeu em
TTITLE3=De khong con xa nhau
TTITLE4=Tham phu phu ban [remix]
TTITLE5=Giac mong phu du
TTITLE6=Tinh em sa mac
TTITLE7=Tinh mong (Mong ao)
TTITLE8=Noi buon Me toi
TTITLE9=Em se quen [remix]
TTITLE10=Tinh yeu ngay ay [remix]
TTITLE11=Tinh theo gio may
EXTD=
EXTT0=
EXTT1=
EXTT2=
EXTT3=
EXTT4=
EXTT5=
EXTT6=
EXTT7=
EXTT8=
EXTT9=
EXTT10=
EXTT11=
PLAYORDER=
